<?xml version="1.0" encoding="UTF-8" standalone="no"?>
<!-- Created with Inkscape (http://www.inkscape.org/) -->
<svg
   xmlns:dc="http://purl.org/dc/elements/1.1/"
   xmlns:cc="http://creativecommons.org/ns#"
   xmlns:rdf="http://www.w3.org/1999/02/22-rdf-syntax-ns#"
   xmlns:svg="http://www.w3.org/2000/svg"
   xmlns="http://www.w3.org/2000/svg"
   xmlns:sodipodi="http://sodipodi.sourceforge.net/DTD/sodipodi-0.dtd"
   xmlns:inkscape="http://www.inkscape.org/namespaces/inkscape"
   width="44.328136"
   height="47.334"
   id="svg2722"
   sodipodi:version="0.32"
   inkscape:version="0.46"
   version="1.0"
   sodipodi:docname="Leaf icon 02.svg"
   inkscape:output_extension="org.inkscape.output.svg.inkscape">
  <defs
     id="defs2724">
    <inkscape:perspective
       sodipodi:type="inkscape:persp3d"
       inkscape:vp_x="0 : 526.18109 : 1"
       inkscape:vp_y="0 : 1000 : 0"
       inkscape:vp_z="744.09448 : 526.18109 : 1"
       inkscape:persp3d-origin="372.04724 : 350.78739 : 1"
       id="perspective2730" />
  </defs>
  <sodipodi:namedview
     id="base"
     pagecolor="#ffffff"
     bordercolor="#666666"
     borderopacity="1.0"
     gridtolerance="10000"
     guidetolerance="10"
     objecttolerance="10"
     inkscape:pageopacity="0.0"
     inkscape:pageshadow="2"
     inkscape:zoom="0.35"
     inkscape:cx="375"
     inkscape:cy="520"
     inkscape:document-units="px"
     inkscape:current-layer="layer1"
     showgrid="false"
     inkscape:window-width="672"
     inkscape:window-height="718"
     inkscape:window-x="600"
     inkscape:window-y="249" />
  <metadata
     id="metadata2727">
    <rdf:RDF>
      <cc:Work
         rdf:about="">
        <dc:format>image/svg+xml</dc:format>
        <dc:type
           rdf:resource="http://purl.org/dc/dcmitype/StillImage" />
        <cc:license
           rdf:resource="GPL" />
      </cc:Work>
    </rdf:RDF>
  </metadata>
  <g
     inkscape:label="Layer 1"
     inkscape:groupmode="layer"
     id="layer1"
     transform="translate(-340.69307,-234.40947)">
    <g
       transform="matrix(1.2500001,0,0,1.2500001,340.69307,239.84947)"
       style="fill:#affc00;fill-rule:nonzero;stroke:none;stroke-width:0.642259;stroke-linecap:butt;stroke-linejoin:miter;stroke-dasharray:none"
       id="g4">
      <path
         d="M 8.56121,19.5456 C 6.04637,16.9738 3.02319,16.2163 1.74762,11.9456 C 0.604989,8.13958 1.6381,4.0932 0,0 C 1.52916,4.59359 5.34709,2.94009 8.28126,5.09746 C 11.7343,7.6399 11.3478,12.8191 10.4055,17.2024 C 10.7205,12.5368 7.818,8.50159 4.32863,6.76423 C 7.73542,10.2634 9.51642,15.5055 8.98933,20.5967 C 8.98933,20.5967 8.56121,19.5456 8.56121,19.5456 z"
         id="path6" />
    </g>
    <g
       transform="matrix(1.2500001,0,0,1.2500001,354.22308,234.40947)"
       style="fill:#affc00;fill-rule:nonzero;stroke:none;stroke-width:0.642259;stroke-linecap:butt;stroke-linejoin:miter;stroke-dasharray:none"
       id="g8">
      <path
         d="M 2.3977,21.4996 C 1.88407,17.5937 0,14.6739 1.35346,10.436 C 2.55817,6.6608 5.54622,4.38253 6.53013,0 C 5.19189,4.67954 8.99401,6.37986 10.0511,10.2977 C 11.2927,14.9066 8.17877,18.5435 5.07769,21.1446 C 7.85431,17.8397 7.8467,12.5228 6.13949,8.4995 C 6.82355,13.801 5.32601,19.1654 2.15348,22.6283 C 2.15348,22.6283 2.3977,21.4996 2.3977,21.4996 z"
         id="path10" />
    </g>
    <path
       style="fill:#affc00;fill-rule:nonzero;stroke:none;stroke-width:0.642259;stroke-linecap:butt;stroke-linejoin:miter;stroke-dasharray:none"
       d="M 362.74636,262.33791 C 365.51288,258.66017 366.39723,254.17613 370.90682,252.39754 C 374.92671,250.81114 379.13321,252.46831 383.47146,250.15072 C 378.61271,252.29359 380.23271,258.03557 377.88571,262.34927 C 375.12284,267.42122 369.70915,266.68922 365.14537,265.15347 C 370.02395,265.76147 374.33371,261.55432 376.25759,256.40723 C 372.48959,261.37873 366.95068,263.87884 361.63433,262.94597 C 361.63433,262.94597 362.74636,262.33791 362.74636,262.33791 z"
       id="path14" />
    <g
       transform="matrix(1.2500001,0,0,1.2500001,362.19433,265.60072)"
       style="fill:#affc00;fill-rule:nonzero;stroke:none;stroke-width:0.642259;stroke-linecap:butt;stroke-linejoin:miter;stroke-dasharray:none"
       id="g16">
      <path
         d="M 0.924175,5.26938 C 3.3822,7.92224 4.39715,11.4025 8.11025,12.3705 C 11.4151,13.2349 14.6503,11.4983 18.2615,12.9142 C 14.2486,11.6891 15.1382,6.96411 12.9695,3.76264 C 10.416,0 6.16175,1.11747 2.64016,2.79053 C 6.47801,1.82192 10.2005,4.74454 12.0881,8.65045 C 8.7451,5.06881 4.16347,3.62707 0,4.89409 C 0,4.89409 0.924175,5.26938 0.924175,5.26938 z"
         id="path18" />
    </g>
  </g>
</svg>
