<?xml version="1.0" encoding="iso-8859-1"?>
<!-- Generator: Adobe Illustrator 19.0.0, SVG Export Plug-In . SVG Version: 6.00 Build 0)  -->
<svg version="1.1" id="Layer_1" xmlns="http://www.w3.org/2000/svg" xmlns:xlink="http://www.w3.org/1999/xlink" x="0px" y="0px"
	 viewBox="0 0 512 512" style="enable-background:new 0 0 512 512;" xml:space="preserve">
<circle style="fill:#FFAD9E;" cx="256" cy="256" r="256"/>
<path style="fill:#FF6262;" d="M512,256c0-15.975-1.477-31.606-4.277-46.771l-79.932-79.932l-300.199,261.67l-13.993,15.955
	l101.874,101.874c13.202,2.1,26.736,3.205,40.529,3.205C397.384,512,512,397.384,512,256z"/>
<rect x="119.241" y="380.816" transform="matrix(-0.7071 -0.7071 0.7071 -0.7071 -71.3632 760.5157)" style="fill:#273B7A;" width="5.172" height="28.444"/>
<rect x="129.837" y="342.2" transform="matrix(-0.7071 -0.7071 0.7071 -0.7071 -12.4821 736.1185)" style="fill:#5985AA;" width="32.754" height="56.888"/>
<g>
	
		<rect x="143.647" y="347.935" transform="matrix(0.7071 0.7071 -0.7071 0.7071 310.6392 2.809)" style="fill:#386895;" width="16.563" height="56.888"/>
	
		<rect x="212.577" y="152.141" transform="matrix(-0.7071 -0.7071 0.7071 -0.7071 206.0031 645.608)" style="fill:#386895;" width="48.269" height="255.998"/>
</g>
<g>
	
		<rect x="233.021" y="160.618" transform="matrix(0.7071 0.7071 -0.7071 0.7071 275.8951 -88.8369)" style="fill:#273B7A;" width="24.324" height="255.998"/>
	<path style="fill:#273B7A;" d="M325.092,272.267c-1.103,0-2.205-0.421-3.048-1.262c-1.684-1.684-1.684-4.411,0-6.094l97.62-97.621
		c2.984-2.984,4.629-6.953,4.629-11.173c0-4.22-1.643-8.189-4.629-11.173l-5.892-5.892c-1.684-1.684-1.684-4.411,0-6.094
		s4.411-1.684,6.094,0l5.892,5.892c4.613,4.611,7.152,10.743,7.152,17.268s-2.541,12.657-7.152,17.268l-97.62,97.621
		C327.297,271.844,326.196,272.267,325.092,272.267z"/>
	
		<rect x="318.892" y="84.18" transform="matrix(-0.7071 -0.7071 0.7071 -0.7071 473.0772 534.9803)" style="fill:#273B7A;" width="56.888" height="170.665"/>
</g>
<g>
	
		<rect x="343.013" y="94.186" transform="matrix(0.7071 0.7071 -0.7071 0.7071 231.5978 -200.0894)" style="fill:#121149;" width="28.63" height="170.665"/>
	
		<rect x="281.479" y="188.116" transform="matrix(-0.7071 0.7071 -0.7071 -0.7071 665.7714 157.3479)" style="fill:#121149;" width="37.638" height="56.888"/>
</g>
<rect x="295.989" y="207.74" transform="matrix(0.7071 0.7071 -0.7071 0.7071 251.0871 -153.061)" style="fill:#0A0A35;" width="28.63" height="37.638"/>
<g>
</g>
<g>
</g>
<g>
</g>
<g>
</g>
<g>
</g>
<g>
</g>
<g>
</g>
<g>
</g>
<g>
</g>
<g>
</g>
<g>
</g>
<g>
</g>
<g>
</g>
<g>
</g>
<g>
</g>
</svg>
